<svg width="220" height="190" viewBox="0 0 220 190" fill="none" xmlns="http://www.w3.org/2000/svg">
<g clip-path="url(#clip0_2022_29)">
<path d="M45.6867 22.7212C44.8223 31.5409 59.4327 15.7285 61.4356 18.8784C60.1496 16.8625 57.451 29.168 59.1376 27.908C56.6287 29.798 56.6709 24.9262 55.0264 25.0731C52.3278 25.3041 49.1865 28.706 47.0993 28.58C44.9277 28.454 44.1055 26.4171 42.5664 26.3331C41.7653 26.2911 38.0758 28.496 37.4644 27.803C35.1242 25.1361 43.1146 20.0334 45.8132 22.8892L45.7078 22.7422L45.6867 22.7212Z" fill="black"/>
<path d="M31.7509 39.1008C34.1333 38.4498 34.9977 38.8908 36.6632 37.3158C35.3139 38.6178 34.1122 32.675 35.5458 32.822C38.5185 33.137 44.2109 42.6286 41.681 44.2245C44.6326 42.3766 35.5458 42.1666 35.6934 42.1666C33.9435 42.2086 32.1937 45.1905 30.486 45.2115C24.4562 45.2745 33.3321 41.0537 31.8353 39.0798H31.7509V39.1008Z" fill="black"/>
<path d="M85.6177 20.9364C87.9579 20.0754 94.9152 26.9841 88.9698 28.0341C88.1898 27.2571 87.747 26.2701 87.6627 25.0942C86.4188 24.9892 85.3225 25.3672 84.3738 26.2281C86.5875 26.3121 72.2511 30.7639 76.7418 26.9211C78.4284 25.4722 86.3345 24.6952 85.5966 20.9154L85.6177 20.9364Z" fill="black"/>
<path d="M57.767 3.00284C58.0621 1.04992 51.8427 12.4104 54.963 11.4655C52.686 12.1585 52.3276 7.91663 50.2404 7.28666C49.0597 6.92967 48.3218 10.7935 46.0238 9.84855C42.503 8.39961 56.6496 -3.1499 57.767 3.00284Z" fill="black"/>
<path d="M77.838 35.5934C77.6482 38.4703 61.8571 46.66 60.9084 44.7281C60.297 43.4891 77.079 31.7716 77.838 35.5934Z" fill="black"/>
<path d="M45.792 22.8684C45.0541 20.6005 47.3943 14.2168 40.964 19.8866C38.6027 21.9655 38.3287 18.5006 38.5606 16.5057L38.4341 16.6317C42.2923 16.4427 43.5361 13.7128 46.6142 16.0227C52.0536 20.0966 47.6051 20.7265 45.6655 22.7214L45.7709 22.8894L45.792 22.8684Z" fill="black"/>
<path d="M44.0636 37.5044C42.651 37.3364 38.8139 31.7297 39.5518 30.4277C38.8983 31.5617 50.0933 33.0526 48.744 31.0157C50.1987 33.1996 47.8163 37.5884 44.0425 37.5044H44.0636Z" fill="black"/>
<path d="M60.7818 39.8773C59.812 40.6333 46.4876 49.7469 48.7013 43.6362C49.1441 42.3972 60.1704 35.9925 60.7818 39.8773Z" fill="black"/>
<path d="M136.385 26.543C136.849 31.7088 122.302 30.5958 126.898 23.1411C125.781 24.947 136.153 25.829 136.385 26.543Z" fill="black"/>
<path d="M67.3179 11.2349C61.3303 11.0249 67.5076 7.32905 67.5076 7.26605C68.7515 7.11906 69.384 6.40509 69.4262 5.12414C68.098 4.36818 67.2968 3.29722 67.0438 1.91128C67.1281 1.61729 79.3984 9.55496 67.3179 11.2349Z" fill="black"/>
<path d="M101.662 41.3684C101.809 31.9188 118.591 34.0817 101.662 41.3264V41.3684Z" fill="black"/>
<path d="M98.415 32.1919C112.245 25.3672 103.517 38.8277 98.4572 32.1919H98.415Z" fill="black"/>
<path d="M98.4362 32.1918C96.5809 30.8269 92.7438 24.5061 94.8943 22.9732C97.1291 21.3773 100.27 30.0709 98.4151 32.1708H98.4362V32.1918Z" fill="black"/>
<path d="M33.1212 27.4878C39.4461 28.4538 28.4197 35.3625 27.1758 32.5696C26.5433 31.1416 32.573 27.8658 33.1212 27.4878Z" fill="black"/>
<path d="M81.2958 10.8569C87.8104 13.2088 77.2901 18.1016 76.1516 16.7367C74.233 14.4478 80.7055 12.6629 81.2958 10.8569Z" fill="black"/>
<path d="M20.345 24.296C20.113 25.7869 19.333 26.6269 18.0258 26.7949C17.4988 26.1229 13.0503 20.2432 14.4839 18.8362C16.1705 17.1773 18.1102 24.128 20.345 24.296Z" fill="black"/>
<path d="M27.2604 26.5641C27.2393 28.265 21.1674 32.4648 19.6284 31.1419C16.7822 28.685 25.4894 25.6191 27.2604 26.5641Z" fill="black"/>
<path d="M201.426 45.9252C198.348 52.0359 193.984 42.4603 195.08 40.9904C195.607 40.2554 200.013 45.7152 201.426 45.9252Z" fill="black"/>
<path d="M32.8896 20.1173C38.329 17.2824 34.9346 24.3801 31.477 25.6821C25.8268 27.824 32.8896 20.0753 32.9107 20.1173H32.8896Z" fill="black"/>
<path d="M207.393 38.6595C208.742 39.4785 217.681 35.3417 213.528 40.1295C210.471 43.6573 207.224 44.3503 207.561 38.4706L207.372 38.6595H207.393Z" fill="black"/>
<path d="M90.003 34.5858C88.9489 39.6886 83.3197 30.197 84.6269 28.9581C86.3768 27.2991 89.4759 34.1238 90.003 34.5858Z" fill="black"/>
<path d="M25.637 21.6083C25.4684 20.3273 22.2216 9.09279 26.3749 15.7705C28.7573 19.5924 31.3083 20.6423 25.4895 21.4403L25.6581 21.6083H25.637Z" fill="black"/>
<path d="M121.375 36.4127C119.793 36.1817 114.923 29.861 117.327 28.7061C118.971 27.9081 124.031 36.8747 121.375 36.4127Z" fill="black"/>
<path d="M203.703 45.5261C201.932 45.2531 197.315 37.0005 201.51 38.2394C203.619 38.8694 206.254 44.4132 203.703 45.5261Z" fill="black"/>
<path d="M167.799 34.4806C164.805 36.0766 161.917 33.2207 161.284 30.0288C159.914 23.0151 168.22 34.7536 167.799 34.4806Z" fill="black"/>
<path d="M69.1311 12.5157C73.8747 11.8017 67.4023 16.5685 66.833 16.8415C60.5082 19.7604 65.9476 14.4476 69.1311 12.5157Z" fill="black"/>
<path d="M163.034 39.2896C168.305 43.1534 159.05 46.0723 157.574 44.6863C156.878 44.0564 162.802 39.5625 163.034 39.2896Z" fill="black"/>
<path d="M28.1036 39.8146C27.935 41.4315 22.6432 44.3714 21.2517 43.2585C18.7007 41.2005 28.441 36.2238 28.1036 39.8146Z" fill="black"/>
<path d="M162.064 36.3498C162.191 38.2817 154.2 43.1745 154.938 38.9537C155.297 36.8748 160.778 34.6069 162.064 36.3498Z" fill="black"/>
<path d="M65.6309 36.8115C63.5227 39.8353 60.5289 34.7326 59.8753 32.4856C58.0411 26.1019 66.2845 37.2524 65.6309 36.8115Z" fill="black"/>
<path d="M88.1899 42.4395C86.187 46.2823 80.5368 44.4344 80.1362 44.6444C82.0126 43.7414 86.7141 40.3606 88.1899 42.4395Z" fill="black"/>
<path d="M194.068 25.4931C193.836 26.942 186.563 30.8059 186.289 27.845C186.141 26.1861 192.866 23.8132 194.068 25.4931Z" fill="black"/>
<path d="M178.994 35.4468C178.361 34.8798 177.75 34.3128 177.117 33.7458C177.075 32.7379 183.147 28.5591 184.138 30.302C184.686 31.247 179.31 34.9218 178.994 35.4468Z" fill="black"/>
<path d="M105.372 19.5083C109.357 21.8182 107.628 25.703 106.553 24.1281C106.174 23.5821 103.095 19.7393 105.372 19.5083Z" fill="black"/>
<path d="M172.859 25.556C167.862 22.2592 178.256 22.3012 178.024 22.3852C175.958 22.8892 174.229 23.9391 172.859 25.556Z" fill="black"/>
<path d="M118.444 19.7603C119.941 20.1803 120.932 21.1042 121.438 22.5742C121.206 23.5191 120.594 23.9811 119.624 23.9391C119.877 24.5061 115.302 18.2484 118.444 19.7603Z" fill="black"/>
<path d="M34.9978 46.1774C36.5158 42.2716 38.7927 46.9124 38.0127 46.8284C37.8862 46.8284 33.7539 48.8233 34.9978 46.1774Z" fill="black"/>
<path d="M26.143 34.5017C25.3629 37.7146 23.5709 35.2157 22.7487 35.3627C21.4837 35.5937 26.0376 29.6719 26.143 34.5017Z" fill="black"/>
<path d="M85.6175 20.9152C85.6597 20.2642 84.3947 16.6944 84.3525 16.3584C84.479 17.3034 86.0604 17.6395 85.6177 20.9364L85.6175 20.9152Z" fill="black"/>
<path d="M19.2908 35.9927C24.2032 36.7696 18.7216 39.6045 18.7849 38.8696C18.827 38.2396 16.1073 36.4337 19.2908 35.9927Z" fill="black"/>
<path d="M151.671 29.9658C151.523 32.4857 149.921 30.9948 148.677 31.4778C147.222 32.0238 150.785 25.0941 151.671 29.9658Z" fill="black"/>
<path d="M101.662 41.3264C101.409 41.3264 97.9304 42.3763 97.6985 42.3973C97.2557 42.4603 98.1829 36.8536 101.662 41.3684V41.3264Z" fill="black"/>
<path d="M181.461 40.4652C178.214 39.9403 180.533 38.0923 180.343 37.3364C180.09 36.3074 186.668 39.7513 181.461 40.4652Z" fill="black"/>
<path d="M65.041 26.2071C70.0587 30.8689 62.1527 31.7928 65.1886 26.0601L65.041 26.2071Z" fill="black"/>
<path d="M89.1805 12.6208C93.2495 14.0487 88.6745 15.5187 88.6535 15.7706C88.6535 15.6027 85.997 12.5158 89.1805 12.6208Z" fill="black"/>
<path d="M25.4682 21.4402C23.0015 27.4879 18.6797 19.6553 25.637 21.6083L25.4682 21.4402Z" fill="black"/>
<path d="M116.188 43.3633C116.525 47.9831 108.366 44.4762 116.336 43.5103L116.188 43.3633Z" fill="black"/>
<path d="M115.302 26.942C110.2 26.123 115.787 23.6451 115.766 23.9601C115.745 24.3171 118.844 26.291 115.302 26.942Z" fill="black"/>
<path d="M58.7791 5.60689C62.3421 6.90884 58.8845 7.13983 59.1164 8.86175C59.0321 8.23178 55.0685 5.5229 58.7791 5.60689Z" fill="black"/>
<path d="M31.0551 9.97456C31.3924 9.91156 35.8831 5.60675 35.609 8.86161C35.356 11.9065 32.7839 9.99556 30.9497 9.89057L31.034 9.97456H31.0551Z" fill="black"/>
<path d="M60.1706 12.0746C60.0441 7.66478 63.8179 11.9276 63.6493 11.9486C63.1222 11.9906 62.0891 17.3244 60.1706 12.0746Z" fill="black"/>
<path d="M12.3335 23.2043C11.8697 23.7713 11.3848 24.3383 10.9209 24.9053C8.8759 23.8763 8.83373 22.7843 10.7734 21.6084C11.2793 22.1334 11.8064 22.6794 12.3124 23.2043H12.3335Z" fill="black"/>
<path d="M142.394 35.9298C140.876 37.7357 139.822 37.5047 139.231 35.2578C139.611 33.4099 142.373 34.7538 142.394 35.9298Z" fill="black"/>
<path d="M65.1883 26.0809C58.3996 28.5798 63.839 17.9543 65.0197 26.2279L65.1883 26.0809Z" fill="black"/>
<path d="M116.336 43.5103C117.474 39.1425 123.693 43.3004 116.209 43.3844L116.336 43.5103Z" fill="black"/>
<path d="M71.9771 25.7869C71.8507 29.4197 69.637 26.9628 68.7515 26.1648C67.9082 25.4089 71.8507 22.259 71.9771 25.7869Z" fill="black"/>
<path d="M183.168 24.4224C183.042 24.5274 180.048 29.5041 179.015 26.8373C178.003 24.2334 182.473 24.7164 183.295 24.5484L183.168 24.4224Z" fill="black"/>
<path d="M212.452 33.011C211.461 36.6228 209.88 33.8299 209.353 33.9979C208.257 34.3759 213.485 29.1261 212.452 33.011Z" fill="black"/>
<path d="M159.45 32.2339C158.248 35.0058 157.236 32.4439 156.267 32.4019C155.444 32.3809 159.155 27.5721 159.45 32.2339Z" fill="black"/>
<path d="M7.75838 44.9174C6.40907 39.0586 15.3693 45.6103 7.65296 44.8754L7.75838 44.9174Z" fill="black"/>
<path d="M14.5049 43.0273C19.7756 45.4422 19.0588 46.8702 14.547 43.0273H14.5049Z" fill="black"/>
<path d="M143.827 28.6008C143.174 30.0287 142.246 30.4277 141.066 29.8188C140.307 28.6218 140.728 27.6978 142.331 27.0679C142.837 27.5718 143.322 28.0968 143.827 28.6008Z" fill="black"/>
<path d="M51.632 15.6656C55.9962 16.5895 50.4514 22.7423 51.7796 15.4976L51.632 15.6656Z" fill="black"/>
<path d="M38.5606 16.5057C32.826 13.3978 39.0455 10.395 38.4341 16.6317L38.5606 16.5057Z" fill="black"/>
<path d="M94.0721 19.8233C93.1655 21.1043 92.1535 21.3562 91.0572 20.5583C89.4549 19.0043 93.9245 17.1774 94.0721 19.8233Z" fill="black"/>
<path d="M143.659 32.7168C144.291 31.1839 145.177 30.7849 146.336 31.5199C148.276 33.0948 143.638 35.6357 143.659 32.7168Z" fill="black"/>
<path d="M12.8605 14.5107C14.7369 15.7287 14.6314 16.7576 12.5232 17.5766C10.5414 16.3167 10.6679 15.2877 12.8605 14.5107Z" fill="black"/>
<path d="M51.7796 15.4976C46.3824 13.8386 51.2948 8.60997 51.6321 15.6447L51.7796 15.4976Z" fill="black"/>
<path d="M85.1537 37.4207C84.6688 37.9877 84.1839 38.5336 83.699 39.1006C80.2836 39.3316 84.0574 33.5359 85.1537 37.4207Z" fill="black"/>
<path d="M125.296 30.5747C127.045 30.9107 127.594 31.7297 126.94 33.0106C125.211 34.6695 122.239 31.0577 125.296 30.5747Z" fill="black"/>
<path d="M190.337 40.1717C189.746 42.1666 188.777 42.6076 187.448 41.5366C185.698 39.5837 190.421 37.8828 190.337 40.1717Z" fill="black"/>
<path d="M93.5447 30.617C95.2313 31.226 95.6108 32.087 94.6832 33.1999C92.4062 34.6279 90.4033 30.3441 93.5447 30.617Z" fill="black"/>
<path d="M129.618 37.1474C128.247 38.8483 127.235 38.6173 126.561 36.5174C127.952 34.6485 128.964 34.8585 129.618 37.1474Z" fill="black"/>
<path d="M123.293 37.9878C125.043 38.3238 125.57 39.1217 124.874 40.4027C123.482 41.8516 120.7 39.4997 123.293 37.9878Z" fill="black"/>
<path d="M65.631 4.5568C64.5136 7.0347 63.4173 4.7668 62.6372 4.7668C61.9204 4.7668 66.0105 0.797963 65.631 4.5568Z" fill="black"/>
<path d="M188.228 51.3011C187.806 50.0411 186.352 49.4112 185.74 48.3612C185.234 47.4792 188.291 46.8283 188.059 51.2801H188.249L188.228 51.3011Z" fill="black"/>
<path d="M14.8636 27.9712C14.189 29.2731 13.2824 29.6721 12.165 29.2101C10.8157 28.5382 13.3246 25.0523 14.8636 27.9712Z" fill="black"/>
<path d="M124.22 26.942C123.335 28.7269 122.386 28.8529 121.374 27.32C121.205 25.7451 123.63 24.5481 124.22 26.942Z" fill="black"/>
<path d="M207.582 38.4917C204.926 38.5127 204.251 35.0479 205.685 35.2159C207.372 35.8039 207.941 36.9588 207.393 38.6807L207.582 38.4917Z" fill="black"/>
<path d="M32.9107 20.1173C32.8263 19.9283 30.2329 13.0827 33.5007 15.7076C34.7235 16.6945 33.248 19.0883 32.9107 20.1173Z" fill="black"/>
<path d="M57.3665 16.2534C56.8394 15.7704 56.2912 15.2665 55.7642 14.7835C55.7642 11.2556 61.6463 15.6444 57.3665 16.2534Z" fill="black"/>
<path d="M111.423 32.9266C112.33 31.4776 113.3 31.2257 114.354 32.1916C115.471 34.3545 111.318 35.4465 111.423 32.9266Z" fill="black"/>
<path d="M134.383 33.5776C134.214 36.3705 130.25 34.4176 131.937 32.6537C133.075 31.8767 133.898 32.1707 134.383 33.5776Z" fill="black"/>
<path d="M8.41219 32.3808C4.13237 31.9399 8.79169 28.979 8.7706 29.357C8.7706 29.378 13.0715 32.5068 8.41219 32.3808Z" fill="black"/>
<path d="M104.318 26.228C103.834 26.7739 103.328 27.3199 102.843 27.8659C98.7315 28.0549 103.791 21.9441 104.318 26.228Z" fill="black"/>
<path d="M166.049 21.9022C165.206 24.2331 162.233 22.8052 163.055 21.0202C163.92 19.1093 165.902 20.9782 166.049 21.9022Z" fill="black"/>
<path d="M117.389 37.6098C116.63 41.9146 112.119 35.0899 116.04 35.8039C116.483 36.3918 116.947 37.0008 117.389 37.6098Z" fill="black"/>
<path d="M171.594 35.3628C172.184 35.3628 176.612 35.5308 174.904 37.7987C173.238 40.0246 171.847 36.0978 171.573 35.3418L171.594 35.3628Z" fill="black"/>
<path d="M111.149 39.2056C112.456 39.9195 112.794 40.7805 112.14 41.8095C111.128 43.1114 107.818 39.9405 111.149 39.2056Z" fill="black"/>
<path d="M75.2872 21.7974C78.2389 22.3643 75.8354 23.8133 76.0041 24.5902C76.0673 24.9052 71.7032 22.3433 75.2872 21.7974Z" fill="black"/>
<path d="M46.6566 39.3735C48.2379 39.8985 48.7439 40.8015 48.1746 42.0824C46.8253 43.8044 44.1899 39.4995 46.6566 39.3735Z" fill="black"/>
<path d="M30.9707 9.89062C32.4044 12.9985 25.6157 13.8595 31.0762 9.99562L30.9707 9.89062Z" fill="black"/>
<path d="M80.642 8.81971C79.7143 9.55468 77.4585 10.8146 77.2266 8.39973C78.0488 6.88779 79.1873 7.03479 80.642 8.81971Z" fill="black"/>
<path d="M78.6606 20.5585C78.5974 17.0726 81.7598 20.6005 81.6544 20.6005C81.043 20.6425 79.8202 24.9053 78.6606 20.5585Z" fill="black"/>
<path d="M40.6266 6.69905C40.3526 7.49701 37.2744 9.51293 37.6539 6.80404C38.0545 3.99016 40.4369 5.58609 40.6266 6.69905Z" fill="black"/>
<path d="M31.8565 39.0584C28.1038 32.6117 33.7751 36.6225 31.7722 39.0794L31.8565 39.0584Z" fill="black"/>
<path d="M75.6877 42.9016C76.025 45.7575 72.0193 44.6235 72.9469 42.3976C73.8746 41.3476 74.7811 41.5156 75.6877 42.9016Z" fill="black"/>
<path d="M140.244 43.3211C139.421 44.497 138.473 44.812 137.397 44.2661C136.407 43.6361 139.084 39.5623 140.244 43.3211Z" fill="black"/>
<path d="M183.801 44.4552C183.337 43.9932 182.873 43.5522 182.409 43.0903C182.747 38.4705 187.638 45.0222 183.801 44.4552Z" fill="black"/>
<path d="M154.601 34.6909C153.8 36.3078 152.851 36.6018 151.797 35.5939C150.68 33.3469 154.517 32.171 154.601 34.6909Z" fill="black"/>
<path d="M139.548 31.0579C138.43 35.7407 135.858 29.4409 137.102 29.7559C137.945 29.9869 140.138 28.9369 139.548 31.0579Z" fill="black"/>
<path d="M127.594 44.3294C126.94 47.8993 122.344 42.6705 126.308 42.7335C126.73 43.2585 127.172 43.8044 127.594 44.3294Z" fill="black"/>
<path d="M173.133 43.9934C172.627 44.4974 172.121 44.9804 171.615 45.4843C167.63 45.1064 172.522 40.2766 173.133 43.9934Z" fill="black"/>
<path d="M146.083 46.555C145.641 46.03 145.177 45.5051 144.713 45.0011C145.957 43.1742 146.969 43.2792 147.77 45.2951C147.201 45.715 146.631 46.135 146.062 46.555H146.083Z" fill="black"/>
<path d="M193.098 45.085C192.361 46.576 191.454 46.891 190.4 45.988C189.135 44.0141 193.162 42.5651 193.098 45.085Z" fill="black"/>
<path d="M112.266 19.7393C115.387 19.9282 112.814 22.9731 111.381 21.7762C110.706 20.7892 111.001 20.1172 112.266 19.7393Z" fill="black"/>
<path d="M57.7671 34.7115C57.2401 35.1945 56.6919 35.6565 56.1648 36.1394C52.1802 35.8664 57.4509 30.6167 57.7671 34.7115Z" fill="black"/>
<path d="M194.532 51.5112C192.93 50.6922 192.677 49.8103 193.794 48.8653C195.692 47.9833 197.146 51.4062 194.532 51.5112Z" fill="black"/>
<path d="M169.043 27.2151C168.811 29.8189 165.016 26.5641 166.639 25.7241C167.757 25.3461 168.558 25.8291 169.043 27.2151Z" fill="black"/>
<path d="M54.7524 30.134C54.3096 31.3099 53.5717 31.6669 52.5808 31.2259C51.5899 30.344 51.9062 29.546 53.4874 28.811C53.909 29.252 54.3307 29.693 54.7524 30.113V30.134Z" fill="black"/>
<path d="M73.4319 29.6929C74.5071 30.2598 74.8022 31.0368 74.3173 32.0448C73.2632 32.5908 72.4831 32.2548 71.9561 31.0368C72.441 30.5958 72.9259 30.1339 73.4108 29.6929H73.4319Z" fill="black"/>
<path d="M151.291 43.4682C147.243 44.2032 152.198 38.0714 152.514 42.2923C152.113 42.6912 151.692 43.0902 151.291 43.4682Z" fill="black"/>
<path d="M171.594 35.3628C171.362 35.8878 168.157 28.559 171.425 30.8269C173.428 32.2128 171.13 33.7038 171.615 35.3627L171.594 35.3628Z" fill="black"/>
<path d="M204.462 32.1289C204.314 35.5938 201.827 31.8979 201.827 31.8979C202.29 31.9189 203.83 29.189 204.462 32.1289Z" fill="black"/>
<path d="M16.0229 31.604C18.2577 31.604 18.8058 34.0399 16.3813 34.3759C14.8212 33.7039 14.6947 32.78 16.0229 31.604Z" fill="black"/>
<path d="M69.932 34.1869C68.9832 38.3447 66.2425 32.15 67.655 32.6749C68.6038 33.0319 70.1639 32.3389 69.932 34.1869Z" fill="black"/>
<path d="M11.7222 37.0847C11.1952 36.5177 10.6892 35.9297 10.1621 35.3628C10.1832 34.3128 14.6317 34.0398 11.7222 37.0847Z" fill="black"/>
<path d="M185.74 37.0635C184.834 36.8535 184.412 36.2865 184.475 35.3625C185.002 33.3046 189.324 36.7065 185.74 37.0635Z" fill="black"/>
<path d="M51.4422 36.4126C53.1289 37.5046 53.15 38.4705 51.5055 39.2895C49.9243 39.0585 49.1231 36.5806 51.4422 36.4126Z" fill="black"/>
<path d="M169.949 39.3735C168.832 40.9695 167.883 40.7805 167.103 38.8065C168.178 37.2106 169.127 37.3996 169.949 39.3735Z" fill="black"/>
<path d="M126.371 19.9281C125.591 21.146 124.621 21.482 123.483 20.9151C121.269 18.7941 125.907 19.6341 126.371 19.9281Z" fill="black"/>
<path d="M101.282 21.0623C100.797 22.9732 99.8486 23.1622 98.436 21.6293C98.942 19.8863 99.8908 19.6973 101.282 21.0623Z" fill="black"/>
<path d="M7.65321 44.8545C6.76773 45.5055 6.30391 47.9414 4.8281 47.6474C1.43376 46.9964 6.64123 44.8755 7.73754 44.8755L7.63213 44.8335L7.65321 44.8545Z" fill="black"/>
<path d="M183.316 24.5479C182.156 19.4871 189.915 24.1699 183.189 24.4219L183.316 24.5479Z" fill="black"/>
<path d="M143.006 47.29C142.162 48.7389 141.256 48.7809 140.244 47.416C141.066 45.883 141.994 45.841 143.006 47.29Z" fill="black"/>
<path d="M166.808 48.3609C165.206 47.6469 164.826 46.786 165.67 45.736C167.314 44.959 169.169 48.4659 166.808 48.3609Z" fill="black"/>
<path d="M13.9993 48.5083C13.9361 50.8602 10.0147 48.8023 11.4483 47.1224C12.6711 46.3874 13.5144 46.8284 13.9993 48.5083Z" fill="black"/>
<path d="M159.492 25.346C159.07 24.9261 158.628 24.5271 158.206 24.1071C159.07 19.5293 162.886 25.955 159.492 25.346Z" fill="black"/>
<path d="M208.257 49.3689C208.278 52.3088 204.567 48.1299 206.17 48.6129C206.95 48.8439 207.393 46.912 208.257 49.3689Z" fill="black"/>
<path d="M7.73731 49.1802C10.7311 50.2301 7.82164 50.6291 7.88489 51.9731C7.88489 52.0361 3.77373 49.2852 7.73731 49.1802Z" fill="black"/>
<path d="M156.583 27.0683C156.203 29.7141 153.21 27.3412 153.948 26.1023C154.96 25.2623 155.824 25.5983 156.583 27.0683Z" fill="black"/>
<path d="M87.8948 11.0037C86.6931 11.6756 83.5096 11.2347 85.2594 9.30275C86.4612 8.96676 87.3466 9.53374 87.8948 11.0037Z" fill="black"/>
<path d="M136.048 37.1055C139.379 39.6884 134.614 39.6884 134.614 38.4494C135.099 38.0084 135.563 37.5465 136.048 37.1055Z" fill="black"/>
<path d="M8.13815 17.3456C9.57179 18.3536 9.46638 19.1515 7.84299 19.7185C6.83102 19.4245 6.91535 17.2826 8.13815 17.3456Z" fill="black"/>
<path d="M195.965 31.226C192.761 31.73 194.637 27.6771 196.197 28.8321C196.956 29.6511 196.872 30.449 195.965 31.226Z" fill="black"/>
<path d="M175.452 27.9712C179.711 28.7902 173.828 32.15 174.145 29.1681C174.587 28.7692 175.009 28.3702 175.452 27.9712Z" fill="black"/>
<path d="M75.7087 11.2976C75.6244 12.6626 72.9469 12.7046 72.9258 11.2976C73.9588 9.5337 74.8865 9.5127 75.7087 11.2976Z" fill="black"/>
<path d="M174.018 47.7729C174.524 48.1089 175.03 48.4449 175.515 48.8019C175.895 51.9518 170.729 48.2769 174.018 47.7729Z" fill="black"/>
<path d="M144.439 40.5702C144.249 41.8512 141.656 41.7252 141.909 40.3183C142.921 38.8483 143.764 38.9323 144.439 40.5702Z" fill="black"/>
<path d="M43.3677 10.9829C43.5785 14.0697 40.9221 11.4238 40.7745 11.4448C40.5847 11.4658 42.8406 7.11902 43.3677 10.9829Z" fill="black"/>
<path d="M14.5472 43.0485C13.219 38.1137 16.9085 39.9616 14.5051 43.0485H14.5472Z" fill="black"/>
<path d="M82.3076 32.8638C81.886 34.5647 81.0848 34.7957 79.9042 33.5358C79.6512 32.1498 81.7173 30.6169 82.3076 32.8638Z" fill="black"/>
<path d="M6.45168 40.0663C5.35536 39.3733 5.16562 38.5753 5.86135 37.6304C7.12633 36.7064 9.78277 39.6043 6.45168 40.0663Z" fill="black"/>
<path d="M130.904 39.9194C131.452 40.3814 132.021 40.8224 132.569 41.2844C133.033 44.5392 126.666 40.7804 130.904 39.9194Z" fill="black"/>
<path d="M177.497 41.5154C177.35 42.7754 174.841 42.9014 174.946 41.3054C175.874 39.8145 176.717 39.8775 177.497 41.5154Z" fill="black"/>
<path d="M148.677 25.2833C147.644 26.6903 146.821 26.6063 146.21 25.0313C147.222 23.6454 148.044 23.7294 148.677 25.2833Z" fill="black"/>
<path d="M179.5 47.3744C177.202 47.6054 178.214 43.6366 180.027 45.0225C180.997 45.9045 180.828 46.6814 179.5 47.3744Z" fill="black"/>
<path d="M17.457 11.5708C18.6587 11.9908 18.996 12.7048 18.4689 13.7337C16.7401 15.2876 14.7794 11.7808 17.457 11.5708Z" fill="black"/>
<path d="M199.402 34.6698C198.622 36.4337 197.842 36.4337 197.083 34.6698C197.737 33.3679 198.496 33.3679 199.402 34.6698Z" fill="black"/>
<path d="M24.9622 48.4451C23.402 47.8362 23.2544 47.1432 24.5405 46.3452C26.3325 46.7232 26.4801 47.4162 24.9622 48.4451Z" fill="black"/>
<path d="M133.286 21.7763C132.717 24.5691 129.807 21.2093 131.241 20.5583C132.211 20.2223 132.907 20.6213 133.286 21.7763Z" fill="black"/>
<path d="M107.966 43.1112C107.481 44.7071 106.637 44.9381 105.394 43.7832C105.668 41.9352 106.511 41.7043 107.966 43.1112Z" fill="black"/>
<path d="M155.339 46.4291C155.781 47.7941 153.483 48.319 152.999 47.0801C153.42 45.5472 154.2 45.3162 155.339 46.4291Z" fill="black"/>
<path d="M92.5751 39.6046C91.4578 40.8855 90.6777 40.7385 90.2139 39.1426C90.5301 37.9876 92.6595 38.5126 92.5751 39.6046Z" fill="black"/>
<path d="M200.815 27.929C200.33 28.5589 198.221 27.572 198.959 26.711C200.519 25.85 201.131 26.27 200.815 27.929Z" fill="black"/>
<path d="M191.327 32.8219C190.252 34.2499 189.577 34.2079 189.303 32.6539C190.273 31.457 190.948 31.52 191.327 32.8219Z" fill="black"/>
<path d="M214.856 29.9238C216.416 30.9318 216.311 31.5828 214.477 31.8557C213.106 31.1418 213.233 30.4908 214.856 29.9238Z" fill="black"/>
<path d="M68.8988 21.692C68.6037 23.7289 65.9683 21.944 67.0435 20.5791C68.0133 19.9281 68.6458 20.3061 68.8988 21.692Z" fill="black"/>
<path d="M95.1894 43.8045C94.9575 45.2744 94.3461 45.6524 93.3552 44.9384C92.301 43.4265 94.9364 41.8516 95.1894 43.8045Z" fill="black"/>
<path d="M207.582 28.4541C208.425 28.4961 208.847 28.9161 208.847 29.714C208.257 30.449 207.582 30.575 206.823 30.134C206.38 29.3361 206.633 28.7691 207.582 28.4541Z" fill="black"/>
<path d="M11.0474 11.3604C9.90896 12.7044 9.06565 12.5364 8.53857 10.8565C9.52947 9.84851 10.3728 10.0165 11.0474 11.3604Z" fill="black"/>
<path d="M101.472 44.5181C102.674 45.169 102.948 45.925 102.273 46.786C100.545 47.4579 100.355 45.358 101.472 44.5181Z" fill="black"/>
<path d="M211.462 44.7705C212.958 45.8625 212.853 46.6604 211.124 47.1644C210.112 46.2614 210.239 45.4635 211.462 44.7705Z" fill="black"/>
<path d="M20.9775 49.5582C19.8601 50.8181 19.1854 50.7341 18.9746 49.3062C19.8179 48.3402 20.4715 48.4242 20.9775 49.5582Z" fill="black"/>
<path d="M73.0525 18.6682C72.6308 20.0331 72.0194 19.9701 71.2183 18.5002C71.8929 17.2823 72.5043 17.3452 73.0525 18.6682Z" fill="black"/>
<path d="M216.585 43.9724C215.889 44.4764 215.341 44.2874 214.94 43.4264C215.594 42.0615 216.142 42.2295 216.585 43.9724Z" fill="black"/>
<path d="M3.83718 54.409C2.2138 53.884 2.02405 53.212 3.26794 52.4141C4.74374 52.876 4.93349 53.548 3.83718 54.409Z" fill="black"/>
<path d="M61.7521 0.903125C60.8877 1.36511 60.3606 1.17611 60.1709 0.357148C61.0564 -0.293825 61.5835 -0.104833 61.7521 0.903125Z" fill="black"/>
<path d="M111.592 28.0132C111.465 28.2021 109.231 30.638 109.399 28.2651C109.947 27.1732 110.664 27.0892 111.592 28.0132Z" fill="black"/>
<path d="M140.265 23.6661C140.012 23.7921 139.632 23.9811 139.274 24.1701C138.409 21.8182 140.602 22.7001 140.265 23.6661Z" fill="black"/>
<path d="M152.872 22.8264C152.872 22.8264 150.385 23.7503 151.038 22.3224C151.924 21.2724 152.535 21.4404 152.872 22.8264Z" fill="black"/>
<path d="M98.0356 35.9297C97.7615 36.1397 96.0117 38.0926 95.337 36.9166C94.2196 34.9427 97.7194 35.8247 98.0356 35.9297Z" fill="black"/>
<path d="M69.5525 44.9805C70.6067 45.6104 70.5645 46.1144 69.4049 46.5344C68.3086 46.1774 68.3719 45.6524 69.5525 44.9805Z" fill="black"/>
<path d="M161.537 47.689C162.739 48.4239 162.76 49.0539 161.6 49.5789C160.462 49.0749 160.441 48.4449 161.537 47.689Z" fill="black"/>
<path d="M135.373 45.9671C135.373 45.9671 132.379 47.542 133.075 45.6521C133.918 44.7491 134.677 44.8541 135.373 45.9671Z" fill="black"/>
<path d="M182.747 50.5033C181.735 51.0072 181.144 50.7763 180.955 49.8733C181.903 49.3063 182.515 49.5163 182.747 50.5033Z" fill="black"/>
<path d="M23.149 10.6466C22.3478 11.3816 21.7575 11.1926 21.3569 10.1216C21.9051 9.76465 23.5496 8.90368 23.149 10.6466Z" fill="black"/>
<path d="M214.919 51.7839C214.118 52.0989 213.001 51.0699 213.823 50.377C214.561 50.419 214.94 50.8809 214.919 51.7839Z" fill="black"/>
<path d="M201.574 50.356C203.197 50.6919 203.281 51.3219 201.869 52.2669C200.688 51.8049 200.583 51.1749 201.574 50.356Z" fill="black"/>
<path d="M209.775 52.3091C209.016 52.9181 208.657 52.8761 209.037 51.8892C209.269 52.0362 209.522 52.1621 209.775 52.3091Z" fill="black"/>
<path d="M6.61989 26.228C6.89397 26.522 6.87288 26.774 6.55664 27.005C6.55664 26.753 6.59881 26.48 6.61989 26.228Z" fill="black"/>
<path d="M144.524 20.4952C144.481 20.6212 144.439 20.7682 144.397 20.8942C143.912 20.6002 143.87 20.3482 144.313 20.0962C144.397 20.2222 144.46 20.3692 144.545 20.4952H144.524Z" fill="black"/>
<path d="M122.787 46.261C122.513 46.744 122.154 46.723 121.69 46.261C122.154 45.7991 122.513 45.7991 122.787 46.261Z" fill="black"/>
<path d="M156.541 20.4533C156.414 20.2433 156.288 20.0333 156.182 19.8443C156.73 19.3824 157.11 19.4664 157.342 20.1173C157.089 20.2223 156.836 20.3273 156.562 20.4533H156.541Z" fill="black"/>
<path d="M188.059 51.2801C188.502 50.8601 187.659 50.8811 188.228 51.3011L188.059 51.2801Z" fill="black"/>
<path d="M5.35498 33.2417L5.48148 33.4517L5.46039 33.2207L5.35498 33.2417Z" fill="black"/>
<path d="M5.46039 33.2207L5.18652 33.4517C5.18652 33.4517 5.3341 33.2627 5.35519 33.2627C5.37627 33.2627 5.48168 33.2207 5.48168 33.2207H5.46039Z" fill="black"/>
<path d="M23.7607 181.999C69.3419 180.508 114.839 180.55 160.42 180.004C170.666 179.878 180.512 179.71 190.674 178.429C193.288 178.094 202.712 178.954 204.842 177.821C208.805 175.721 207.266 172.319 207.203 167.363C206.95 144.852 208.911 122.236 208.847 99.6828C208.826 88.2383 208.7 76.8568 209.838 65.4332C210.808 55.6687 215.299 49.5579 203.45 49.3899C178.741 49.0329 154.074 48.8229 129.344 48.6129C105.246 48.403 81.0851 48.8019 56.9873 48.7179C46.6778 48.6759 36.1996 48.088 25.9111 48.487C23.7185 48.571 12.4602 47.542 10.6893 48.6129C6.87326 50.9229 8.30689 55.7317 8.24365 60.2675C7.86415 83.7235 6.28294 107.074 7.82199 130.53C8.60205 142.311 9.12913 154.091 9.6562 165.872C9.76161 168.14 11.5115 176.519 9.93028 178.261C5.7137 182.902 4.32223 174.503 3.71082 171.731C-1.32799 149.094 0.000233591 121.837 0.717052 98.6958C1.07546 87.2723 1.32846 75.8698 2.12961 64.4673C2.67776 56.5926 -0.632253 44.3921 5.75586 39.8773C11.9332 35.5095 29.0946 39.1843 36.5369 39.2263C50.051 39.3103 63.6284 38.7854 77.1847 38.7644C101.831 38.7434 126.519 41.0953 151.144 41.8722C163.983 42.2712 176.801 42.7542 189.641 43.0062C197.926 43.1742 213.971 40.6333 218.018 48.7599C222.34 57.4536 218.229 74.2319 218.103 83.7235C217.934 95.903 218.841 108.019 218.208 120.22C217.47 134.1 215.573 147.792 216.1 161.735C216.332 167.783 220.865 183.763 215.278 187.48C212.937 189.034 203.619 187.711 200.477 188.005C193.626 188.677 186.795 188.803 179.879 189.16C166.007 189.874 152.366 190.252 138.473 189.811C110.664 188.971 82.8349 189.748 55.0266 189.16C42.1239 188.887 24.8359 190.966 12.3337 187.627C-2.44538 183.658 18.0472 181.789 23.7817 181.789C23.7817 181.852 23.7817 181.936 23.7817 181.999H23.7607Z" fill="black"/>
<path d="M44.5694 2.43591C53.2345 4.17884 62.2158 1.11297 71.0074 2.6879C80.8531 4.47283 83.868 9.55461 90.9518 15.3084C104.382 26.2069 132.085 20.1382 148.339 20.3272C165.986 20.5371 187.722 15.1614 204.821 21.3561C212.453 24.128 216.859 30.5117 218.546 38.1554C219.431 42.2082 220.464 58.5245 212.41 53.6318C208.51 51.2589 209.501 36.2235 205.369 31.9397C199.676 26.0389 186.837 27.7188 179.563 27.8868C157.089 28.4328 134.636 29.7978 112.14 29.9658C103.791 30.0287 94.6624 29.9238 87.7261 24.611C81.4223 19.7812 79.7357 12.7255 71.7031 9.8066C59.3485 5.31279 28.4832 5.1448 17.752 13.2925C14.2522 15.9593 11.7434 19.4872 10.4152 23.624C8.89718 28.3068 10.9422 37.7564 8.20145 41.6203C2.23499 49.9779 0.948931 33.6616 1.476 28.7058C3.96378 4.64082 23.0227 1.02897 44.5694 2.43591Z" fill="black"/>
</g>
<defs>
<clipPath id="clip0_2022_29">
<rect width="220" height="190" fill="white"/>
</clipPath>
</defs>
</svg>
